<?xml version="1.0" encoding="utf-8"?>
<!-- Generator: Adobe Illustrator 27.8.0, SVG Export Plug-In . SVG Version: 6.00 Build 0)  -->
<svg version="1.1" id="Layer_1" xmlns="http://www.w3.org/2000/svg" xmlns:xlink="http://www.w3.org/1999/xlink" x="0px" y="0px"
	 viewBox="0 0 765.4 198.4" style="enable-background:new 0 0 765.4 198.4;" xml:space="preserve">
<style type="text/css">
	.st0{clip-path:url(#SVGID_00000080892418680867822290000004085624073828471729_);}
	.st1{clip-path:url(#SVGID_00000179616339706449170770000010793427089000336537_);}
	.st2{fill:#FFFFFF;}
	.st3{opacity:0;}
	
		.st4{clip-path:url(#SVGID_00000177473640687471323960000012586707197255591831_);fill:#FFFFFF;stroke:#000000;stroke-miterlimit:10;}
</style>
<g>
	<defs>
		<rect id="SVGID_1_" x="485.8" y="23.8" width="253.1" height="101.7"/>
	</defs>
	<clipPath id="SVGID_00000070077718124329706180000017435372257121686668_">
		<use xlink:href="#SVGID_1_"  style="overflow:visible;"/>
	</clipPath>
	
		<rect x="485.8" y="23.8" style="clip-path:url(#SVGID_00000070077718124329706180000017435372257121686668_);" width="253.1" height="101.7"/>
</g>
<g>
	<defs>
		<rect id="SVGID_00000135675788357699989450000008490257066796255160_" x="7.7" y="5.5" width="750" height="187.5"/>
	</defs>
	<clipPath id="SVGID_00000090278613152516897540000010232162008046431897_">
		<use xlink:href="#SVGID_00000135675788357699989450000008490257066796255160_"  style="overflow:visible;"/>
	</clipPath>
	<g style="clip-path:url(#SVGID_00000090278613152516897540000010232162008046431897_);">
		<path d="M245.2,48.9H263c8.1,0,14,1.2,17.7,3.5s5.5,6,5.5,11c0,3.4-0.8,6.2-2.4,8.4s-3.7,3.5-6.4,4v0.4c3.6,0.8,6.3,2.3,7.9,4.5
			c1.6,2.2,2.4,5.2,2.4,8.9c0,5.2-1.9,9.3-5.7,12.2c-3.8,2.9-8.9,4.4-15.4,4.4h-21.5V48.9z M257.3,71.6h7.1c3.3,0,5.7-0.5,7.2-1.5
			s2.2-2.7,2.2-5.1c0-2.2-0.8-3.8-2.4-4.7c-1.6-1-4.2-1.4-7.6-1.4h-6.4V71.6z M257.3,81.2v14.9h7.9c3.3,0,5.8-0.6,7.4-1.9
			c1.6-1.3,2.4-3.2,2.4-5.9c0-4.8-3.4-7.1-10.2-7.1H257.3z"/>
	</g>
	<g style="clip-path:url(#SVGID_00000090278613152516897540000010232162008046431897_);">
		<path d="M322.7,61.5c1.6,0,3,0.1,4,0.4l-0.9,11.2c-1-0.3-2.1-0.4-3.5-0.4c-3.8,0-6.8,1-8.9,2.9c-2.1,2-3.2,4.7-3.2,8.2v22.3h-12
			V62.4h9.1l1.8,7.4h0.6c1.4-2.5,3.2-4.4,5.5-5.9C317.4,62.3,319.9,61.5,322.7,61.5z"/>
	</g>
	<g style="clip-path:url(#SVGID_00000090278613152516897540000010232162008046431897_);">
		<path d="M362.5,106.2l-2.3-6h-0.3c-2,2.5-4.1,4.3-6.2,5.3c-2.1,1-4.9,1.5-8.3,1.5c-4.2,0-7.5-1.2-9.9-3.6
			c-2.4-2.4-3.6-5.8-3.6-10.3c0-4.7,1.6-8.1,4.9-10.3c3.3-2.2,8.2-3.4,14.7-3.7l7.6-0.2V77c0-4.4-2.3-6.7-6.8-6.7
			c-3.5,0-7.6,1.1-12.4,3.2l-4-8.1c5-2.6,10.6-4,16.8-4c5.9,0,10.4,1.3,13.5,3.8c3.1,2.6,4.7,6.5,4.7,11.7v29.2H362.5z M359,85.9
			l-4.6,0.2c-3.5,0.1-6.1,0.7-7.8,1.9c-1.7,1.2-2.5,2.9-2.5,5.3c0,3.4,1.9,5.1,5.8,5.1c2.8,0,5-0.8,6.6-2.4c1.7-1.6,2.5-3.7,2.5-6.4
			V85.9z"/>
	</g>
	<g style="clip-path:url(#SVGID_00000090278613152516897540000010232162008046431897_);">
		<path d="M423.6,106.2h-12V80.6c0-3.2-0.6-5.5-1.7-7.1c-1.1-1.6-2.9-2.4-5.4-2.4c-3.3,0-5.8,1.1-7.3,3.4s-2.2,5.9-2.2,11.1v20.6
			h-12V62.4h9.1l1.6,5.6h0.7c1.3-2.1,3.2-3.7,5.5-4.8c2.3-1.1,5-1.6,8-1.6c5.1,0,9,1.4,11.6,4.1c2.6,2.8,4,6.7,4,11.9V106.2z"/>
	</g>
	<g style="clip-path:url(#SVGID_00000090278613152516897540000010232162008046431897_);">
		<path d="M449.8,107c-5.2,0-9.2-2-12.1-6c-2.9-4-4.4-9.5-4.4-16.6c0-7.2,1.5-12.8,4.5-16.8c3-4,7.1-6,12.4-6
			c5.5,0,9.7,2.1,12.6,6.4h0.4c-0.6-3.3-0.9-6.2-0.9-8.7v-14h12v61h-9.2l-2.3-5.7h-0.5C459.6,104.8,455.4,107,449.8,107z M454,97.5
			c3.1,0,5.3-0.9,6.7-2.7c1.4-1.8,2.2-4.8,2.3-9.1v-1.3c0-4.7-0.7-8.1-2.2-10.1c-1.5-2-3.8-3.1-7.1-3.1c-2.7,0-4.7,1.1-6.2,3.4
			c-1.5,2.3-2.2,5.5-2.2,9.9s0.7,7.5,2.2,9.7C449.1,96.4,451.3,97.5,454,97.5z"/>
	</g>
	<g style="clip-path:url(#SVGID_00000090278613152516897540000010232162008046431897_);">
		<path class="st2" d="M553,66.8c0,6.2-1.9,10.9-5.8,14.2c-3.9,3.3-9.3,4.9-16.5,4.9h-5.2v20.4h-12.2V48.9h18.3
			c7,0,12.2,1.5,15.9,4.5C551.2,56.4,553,60.8,553,66.8z M525.6,75.9h4c3.7,0,6.5-0.7,8.4-2.2c1.9-1.5,2.8-3.6,2.8-6.5
			c0-2.8-0.8-5-2.3-6.3c-1.6-1.4-4-2-7.3-2h-5.5V75.9z"/>
	</g>
	<g style="clip-path:url(#SVGID_00000090278613152516897540000010232162008046431897_);">
		<path class="st2" d="M602.8,84.2c0,7.1-1.9,12.7-5.6,16.7c-3.8,4-9,6-15.7,6c-4.2,0-7.9-0.9-11.1-2.8s-5.7-4.5-7.4-7.9
			s-2.6-7.5-2.6-12.1c0-7.2,1.9-12.7,5.6-16.7c3.7-4,9-6,15.8-6c4.2,0,7.9,0.9,11.1,2.7c3.2,1.8,5.7,4.5,7.4,7.9
			C601.9,75.6,602.8,79.6,602.8,84.2z M572.4,84.2c0,4.3,0.7,7.6,2.1,9.8c1.4,2.2,3.7,3.3,7,3.3c3.2,0,5.5-1.1,6.9-3.3
			c1.4-2.2,2.1-5.5,2.1-9.9c0-4.3-0.7-7.6-2.1-9.8c-1.4-2.2-3.7-3.3-6.9-3.3c-3.2,0-5.5,1.1-6.9,3.2
			C573.1,76.6,572.4,79.8,572.4,84.2z"/>
	</g>
	<g style="clip-path:url(#SVGID_00000090278613152516897540000010232162008046431897_);">
		<path class="st2" d="M612.1,51c0-3.9,2.2-5.8,6.5-5.8c4.3,0,6.5,1.9,6.5,5.8c0,1.9-0.5,3.3-1.6,4.3c-1.1,1-2.7,1.5-4.9,1.5
			C614.3,56.9,612.1,54.9,612.1,51z M624.6,106.2h-12V62.4h12V106.2z"/>
	</g>
	<g style="clip-path:url(#SVGID_00000090278613152516897540000010232162008046431897_);">
		<path class="st2" d="M677.6,106.2h-12V80.6c0-3.2-0.6-5.5-1.7-7.1c-1.1-1.6-2.9-2.4-5.4-2.4c-3.3,0-5.8,1.1-7.3,3.4
			s-2.2,5.9-2.2,11.1v20.6h-12V62.4h9.1l1.6,5.6h0.7c1.3-2.1,3.2-3.7,5.5-4.8c2.3-1.1,5-1.6,8-1.6c5.1,0,9,1.4,11.6,4.1
			c2.6,2.8,4,6.7,4,11.9V106.2z"/>
	</g>
	<g style="clip-path:url(#SVGID_00000090278613152516897540000010232162008046431897_);">
		<path class="st2" d="M708.4,97.5c2.1,0,4.6-0.5,7.5-1.4v8.9c-3,1.3-6.6,2-11,2c-4.8,0-8.3-1.2-10.5-3.6c-2.2-2.4-3.3-6-3.3-10.9
			V71.3h-5.7v-5.1l6.6-4l3.5-9.3h7.6v9.3h12.3v9h-12.3v21.1c0,1.7,0.5,3,1.4,3.8C705.6,97.1,706.8,97.5,708.4,97.5z"/>
	</g>
	<g style="clip-path:url(#SVGID_00000090278613152516897540000010232162008046431897_);">
		<path d="M270.6,145.5l-5.9,22.2h-2.6l-4.4-14.9c-0.1-0.4-0.3-0.9-0.4-1.3c-0.1-0.4-0.2-0.8-0.3-1.2c-0.1-0.4-0.2-0.7-0.3-1
			c-0.1-0.3-0.1-0.5-0.1-0.7c0,0.2-0.1,0.4-0.1,0.7c-0.1,0.3-0.1,0.6-0.2,1c-0.1,0.4-0.2,0.8-0.3,1.2c-0.1,0.4-0.2,0.9-0.4,1.3
			l-4.3,14.9h-2.6l-5.9-22.2h2.7l3.6,13.9c0.1,0.5,0.2,0.9,0.3,1.4c0.1,0.5,0.2,0.9,0.3,1.3s0.2,0.8,0.2,1.2s0.1,0.8,0.2,1.2
			c0.1-0.4,0.1-0.8,0.2-1.2c0.1-0.4,0.2-0.9,0.3-1.3c0.1-0.4,0.2-0.9,0.3-1.3c0.1-0.5,0.2-0.9,0.4-1.4l4-13.8h2.7l4.2,13.9
			c0.1,0.5,0.3,0.9,0.4,1.4c0.1,0.5,0.2,0.9,0.3,1.4c0.1,0.4,0.2,0.9,0.3,1.3c0.1,0.4,0.1,0.8,0.2,1.1c0.1-0.5,0.2-1,0.3-1.6
			s0.2-1.1,0.4-1.7c0.1-0.6,0.3-1.2,0.4-1.8l3.6-13.9H270.6z"/>
	</g>
	<g style="clip-path:url(#SVGID_00000090278613152516897540000010232162008046431897_);">
		<path d="M276.2,144.1v7c0,0.4,0,0.8,0,1.2c0,0.4-0.1,0.8-0.1,1.1h0.2c0.3-0.6,0.8-1.1,1.3-1.5c0.5-0.4,1.1-0.7,1.8-0.9
			c0.7-0.2,1.4-0.3,2.2-0.3c1.3,0,2.4,0.2,3.3,0.6c0.9,0.4,1.6,1.1,2,2c0.4,0.9,0.7,2,0.7,3.5v10.8h-2.5V157c0-1.4-0.3-2.4-0.9-3.1
			s-1.6-1-2.9-1c-1.2,0-2.2,0.2-2.9,0.7c-0.7,0.5-1.3,1.2-1.6,2.1c-0.3,0.9-0.5,2-0.5,3.3v8.7h-2.5v-23.6H276.2z"/>
	</g>
	<g style="clip-path:url(#SVGID_00000090278613152516897540000010232162008046431897_);">
		<path d="M299.2,150.8c1.4,0,2.6,0.3,3.6,0.9c1,0.6,1.8,1.5,2.3,2.6s0.8,2.4,0.8,3.9v1.6h-11.5c0,2,0.5,3.4,1.5,4.5
			c0.9,1,2.3,1.5,4,1.5c1.1,0,2-0.1,2.8-0.3c0.8-0.2,1.6-0.5,2.5-0.8v2.2c-0.8,0.4-1.7,0.6-2.5,0.8c-0.8,0.2-1.8,0.3-2.9,0.3
			c-1.6,0-3-0.3-4.2-1c-1.2-0.7-2.1-1.6-2.8-2.9c-0.7-1.3-1-2.8-1-4.6c0-1.8,0.3-3.3,0.9-4.6c0.6-1.3,1.5-2.3,2.5-3
			C296.4,151.1,297.7,150.8,299.2,150.8z M299.1,152.8c-1.3,0-2.4,0.4-3.2,1.3c-0.8,0.9-1.3,2.1-1.4,3.7h8.8c0-1-0.2-1.9-0.5-2.6
			c-0.3-0.8-0.8-1.3-1.4-1.8C300.9,153.1,300.1,152.8,299.1,152.8z"/>
	</g>
	<g style="clip-path:url(#SVGID_00000090278613152516897540000010232162008046431897_);">
		<path d="M317.8,150.8c0.3,0,0.7,0,1,0.1c0.4,0,0.7,0.1,1,0.1l-0.3,2.3c-0.3-0.1-0.6-0.1-0.9-0.2s-0.6-0.1-0.9-0.1
			c-0.7,0-1.3,0.1-1.9,0.4c-0.6,0.3-1.1,0.7-1.6,1.2s-0.8,1.1-1,1.8c-0.3,0.7-0.4,1.5-0.4,2.3v8.9h-2.5v-16.6h2.1l0.3,3.1h0.1
			c0.3-0.6,0.8-1.2,1.2-1.7c0.5-0.5,1-0.9,1.7-1.2C316.2,150.9,317,150.8,317.8,150.8z"/>
	</g>
	<g style="clip-path:url(#SVGID_00000090278613152516897540000010232162008046431897_);">
		<path d="M329.3,150.8c1.4,0,2.6,0.3,3.6,0.9c1,0.6,1.8,1.5,2.3,2.6s0.8,2.4,0.8,3.9v1.6h-11.5c0,2,0.5,3.4,1.5,4.5
			c0.9,1,2.3,1.5,4,1.5c1.1,0,2-0.1,2.8-0.3c0.8-0.2,1.6-0.5,2.5-0.8v2.2c-0.8,0.4-1.7,0.6-2.5,0.8c-0.8,0.2-1.8,0.3-2.9,0.3
			c-1.6,0-3-0.3-4.2-1c-1.2-0.7-2.1-1.6-2.8-2.9c-0.7-1.3-1-2.8-1-4.6c0-1.8,0.3-3.3,0.9-4.6c0.6-1.3,1.5-2.3,2.5-3
			C326.5,151.1,327.8,150.8,329.3,150.8z M329.3,152.8c-1.3,0-2.4,0.4-3.2,1.3c-0.8,0.9-1.3,2.1-1.4,3.7h8.8c0-1-0.2-1.9-0.5-2.6
			c-0.3-0.8-0.8-1.3-1.4-1.8C331,153.1,330.2,152.8,329.3,152.8z"/>
	</g>
	<g style="clip-path:url(#SVGID_00000090278613152516897540000010232162008046431897_);">
		<path d="M354.6,145.5c2.9,0,4.9,0.6,6.3,1.7c1.3,1.1,2,2.7,2,4.8c0,0.9-0.2,1.8-0.5,2.7c-0.3,0.8-0.8,1.6-1.5,2.2
			c-0.7,0.6-1.6,1.1-2.7,1.5s-2.5,0.6-4.1,0.6h-2.7v8.7h-2.6v-22.2H354.6z M354.3,147.7h-3v9h2.4c1.4,0,2.6-0.2,3.5-0.5
			c0.9-0.3,1.7-0.8,2.1-1.5c0.5-0.7,0.7-1.6,0.7-2.7c0-1.5-0.5-2.6-1.4-3.3S356.3,147.7,354.3,147.7z"/>
	</g>
	<g style="clip-path:url(#SVGID_00000090278613152516897540000010232162008046431897_);">
		<path d="M374.6,150.8c0.3,0,0.7,0,1,0.1c0.4,0,0.7,0.1,1,0.1l-0.3,2.3c-0.3-0.1-0.6-0.1-0.9-0.2s-0.6-0.1-0.9-0.1
			c-0.7,0-1.3,0.1-1.9,0.4c-0.6,0.3-1.1,0.7-1.6,1.2s-0.8,1.1-1,1.8c-0.3,0.7-0.4,1.5-0.4,2.3v8.9h-2.5v-16.6h2.1l0.3,3.1h0.1
			c0.3-0.6,0.8-1.2,1.2-1.7c0.5-0.5,1-0.9,1.7-1.2C373.1,150.9,373.8,150.8,374.6,150.8z"/>
	</g>
	<g style="clip-path:url(#SVGID_00000090278613152516897540000010232162008046431897_);">
		<path d="M386.2,150.8c1.4,0,2.6,0.3,3.6,0.9c1,0.6,1.8,1.5,2.3,2.6c0.5,1.1,0.8,2.4,0.8,3.9v1.6h-11.5c0,2,0.5,3.4,1.5,4.5
			c0.9,1,2.3,1.5,4,1.5c1.1,0,2-0.1,2.8-0.3c0.8-0.2,1.6-0.5,2.5-0.8v2.2c-0.8,0.4-1.7,0.6-2.5,0.8c-0.8,0.2-1.8,0.3-2.9,0.3
			c-1.6,0-3-0.3-4.2-1c-1.2-0.7-2.1-1.6-2.8-2.9c-0.7-1.3-1-2.8-1-4.6c0-1.8,0.3-3.3,0.9-4.6c0.6-1.3,1.5-2.3,2.5-3
			C383.4,151.1,384.7,150.8,386.2,150.8z M386.1,152.8c-1.3,0-2.4,0.4-3.2,1.3c-0.8,0.9-1.3,2.1-1.4,3.7h8.8c0-1-0.2-1.9-0.5-2.6
			s-0.8-1.3-1.4-1.8C387.9,153.1,387.1,152.8,386.1,152.8z"/>
	</g>
	<g style="clip-path:url(#SVGID_00000090278613152516897540000010232162008046431897_);">
		<path d="M403.8,168c-1.5,0-2.8-0.3-4-0.9c-1.1-0.6-2-1.6-2.7-2.8s-1-2.9-1-4.8c0-2,0.3-3.7,1-4.9s1.6-2.2,2.8-2.8s2.5-0.9,4-0.9
			c0.8,0,1.6,0.1,2.4,0.2s1.4,0.4,1.9,0.6l-0.8,2.1c-0.5-0.2-1.1-0.4-1.8-0.5c-0.7-0.2-1.3-0.2-1.9-0.2c-1.2,0-2.1,0.2-2.9,0.7
			c-0.8,0.5-1.3,1.2-1.7,2.2c-0.4,1-0.6,2.1-0.6,3.5c0,1.3,0.2,2.5,0.6,3.4c0.4,1,0.9,1.7,1.7,2.2c0.7,0.5,1.6,0.8,2.8,0.8
			c0.9,0,1.7-0.1,2.4-0.3c0.7-0.2,1.3-0.4,1.9-0.7v2.2c-0.6,0.3-1.2,0.5-1.9,0.7C405.6,167.9,404.8,168,403.8,168z"/>
	</g>
	<g style="clip-path:url(#SVGID_00000090278613152516897540000010232162008046431897_);">
		<path d="M413.3,144.9c0.4,0,0.8,0.1,1.1,0.4c0.3,0.3,0.4,0.7,0.4,1.3c0,0.6-0.1,1-0.4,1.2c-0.3,0.3-0.7,0.4-1.1,0.4
			c-0.4,0-0.8-0.1-1.1-0.4c-0.3-0.3-0.4-0.7-0.4-1.2c0-0.6,0.1-1,0.4-1.3S412.9,144.9,413.3,144.9z M414.6,151.1v16.6h-2.5v-16.6
			H414.6z"/>
	</g>
	<g style="clip-path:url(#SVGID_00000090278613152516897540000010232162008046431897_);">
		<path d="M430.6,163.2c0,1.1-0.3,2-0.8,2.7c-0.5,0.7-1.3,1.3-2.3,1.6c-1,0.4-2.2,0.5-3.5,0.5c-1.2,0-2.2-0.1-3-0.3
			s-1.6-0.4-2.2-0.8v-2.3c0.7,0.3,1.5,0.6,2.4,0.9c0.9,0.3,1.9,0.4,2.9,0.4c1.4,0,2.5-0.2,3.1-0.7c0.6-0.5,1-1.1,1-1.9
			c0-0.5-0.1-0.9-0.4-1.2s-0.7-0.7-1.3-1s-1.4-0.7-2.5-1.1c-1.1-0.4-2-0.8-2.8-1.2s-1.4-0.9-1.8-1.5c-0.4-0.6-0.6-1.3-0.6-2.2
			c0-1.4,0.6-2.5,1.7-3.2c1.1-0.8,2.6-1.1,4.5-1.1c1,0,1.9,0.1,2.8,0.3c0.9,0.2,1.7,0.5,2.4,0.8l-0.8,2c-0.7-0.3-1.4-0.5-2.2-0.7
			s-1.6-0.3-2.4-0.3c-1.2,0-2.1,0.2-2.7,0.6c-0.6,0.4-0.9,0.9-0.9,1.6c0,0.5,0.1,0.9,0.4,1.3c0.3,0.3,0.8,0.6,1.4,0.9
			c0.6,0.3,1.5,0.6,2.5,1c1,0.4,1.9,0.8,2.7,1.2c0.8,0.4,1.3,0.9,1.8,1.5S430.6,162.2,430.6,163.2z"/>
	</g>
	<g style="clip-path:url(#SVGID_00000090278613152516897540000010232162008046431897_);">
		<path d="M436,144.9c0.4,0,0.8,0.1,1.1,0.4c0.3,0.3,0.4,0.7,0.4,1.3c0,0.6-0.1,1-0.4,1.2c-0.3,0.3-0.7,0.4-1.1,0.4
			c-0.4,0-0.8-0.1-1.1-0.4c-0.3-0.3-0.4-0.7-0.4-1.2c0-0.6,0.1-1,0.4-1.3S435.5,144.9,436,144.9z M437.2,151.1v16.6h-2.5v-16.6
			H437.2z"/>
	</g>
	<g style="clip-path:url(#SVGID_00000090278613152516897540000010232162008046431897_);">
		<path d="M456.9,159.4c0,1.4-0.2,2.6-0.5,3.7c-0.4,1.1-0.9,2-1.5,2.7s-1.5,1.3-2.4,1.7c-0.9,0.4-2,0.6-3.2,0.6
			c-1.1,0-2.1-0.2-3.1-0.6s-1.7-1-2.4-1.7c-0.7-0.7-1.2-1.6-1.6-2.7s-0.6-2.3-0.6-3.7c0-1.8,0.3-3.4,0.9-4.6
			c0.6-1.3,1.5-2.3,2.6-2.9c1.1-0.7,2.5-1,4.1-1c1.5,0,2.8,0.3,4,1c1.1,0.7,2,1.7,2.7,2.9S456.9,157.6,456.9,159.4z M444.2,159.4
			c0,1.3,0.2,2.5,0.5,3.5s0.9,1.7,1.6,2.3c0.7,0.5,1.7,0.8,2.8,0.8c1.2,0,2.1-0.3,2.8-0.8c0.7-0.5,1.3-1.3,1.6-2.3
			c0.4-1,0.5-2.1,0.5-3.5c0-1.3-0.2-2.5-0.5-3.4c-0.4-1-0.9-1.7-1.6-2.2c-0.7-0.5-1.7-0.8-2.9-0.8c-1.7,0-3,0.6-3.8,1.7
			C444.6,155.8,444.2,157.3,444.2,159.4z"/>
	</g>
	<g style="clip-path:url(#SVGID_00000090278613152516897540000010232162008046431897_);">
		<path d="M469.1,150.8c2,0,3.5,0.5,4.5,1.4c1,1,1.5,2.5,1.5,4.6v10.8h-2.5V157c0-1.4-0.3-2.4-0.9-3.1c-0.6-0.7-1.6-1-2.9-1
			c-1.8,0-3.1,0.5-3.9,1.6c-0.7,1-1.1,2.6-1.1,4.5v8.7h-2.5v-16.6h2l0.4,2.4h0.1c0.4-0.6,0.8-1.1,1.3-1.5c0.5-0.4,1.2-0.7,1.8-0.9
			C467.6,150.9,468.3,150.8,469.1,150.8z"/>
	</g>
	<g style="clip-path:url(#SVGID_00000090278613152516897540000010232162008046431897_);">
		<path d="M498.4,167.7l-7.4-19.6h-0.1c0,0.4,0.1,0.9,0.1,1.5c0,0.6,0.1,1.2,0.1,1.9c0,0.7,0,1.4,0,2.1v14h-2.4v-22.2h3.8l7,18.4
			h0.1l7.1-18.4h3.8v22.2H508v-14.2c0-0.7,0-1.3,0-2c0-0.7,0-1.3,0.1-1.9c0-0.6,0.1-1.1,0.1-1.5h-0.1l-7.5,19.6H498.4z"/>
	</g>
	<g style="clip-path:url(#SVGID_00000090278613152516897540000010232162008046431897_);">
		<path d="M522.6,150.8c1.4,0,2.6,0.3,3.6,0.9c1,0.6,1.8,1.5,2.3,2.6c0.5,1.1,0.8,2.4,0.8,3.9v1.6h-11.5c0,2,0.5,3.4,1.5,4.5
			c0.9,1,2.3,1.5,4,1.5c1.1,0,2-0.1,2.8-0.3c0.8-0.2,1.6-0.5,2.5-0.8v2.2c-0.8,0.4-1.7,0.6-2.5,0.8c-0.8,0.2-1.8,0.3-2.9,0.3
			c-1.6,0-3-0.3-4.2-1c-1.2-0.7-2.1-1.6-2.8-2.9c-0.7-1.3-1-2.8-1-4.6c0-1.8,0.3-3.3,0.9-4.6c0.6-1.3,1.5-2.3,2.5-3
			C519.9,151.1,521.2,150.8,522.6,150.8z M522.6,152.8c-1.3,0-2.4,0.4-3.2,1.3c-0.8,0.9-1.3,2.1-1.4,3.7h8.8c0-1-0.2-1.9-0.5-2.6
			s-0.8-1.3-1.4-1.8C524.3,153.1,523.6,152.8,522.6,152.8z"/>
	</g>
	<g style="clip-path:url(#SVGID_00000090278613152516897540000010232162008046431897_);">
		<path d="M540.1,150.8c1.4,0,2.6,0.3,3.6,0.9c1,0.6,1.8,1.5,2.3,2.6c0.5,1.1,0.8,2.4,0.8,3.9v1.6h-11.5c0,2,0.5,3.4,1.5,4.5
			c0.9,1,2.3,1.5,4,1.5c1.1,0,2-0.1,2.8-0.3c0.8-0.2,1.6-0.5,2.5-0.8v2.2c-0.8,0.4-1.7,0.6-2.5,0.8c-0.8,0.2-1.8,0.3-2.9,0.3
			c-1.6,0-3-0.3-4.2-1c-1.2-0.7-2.1-1.6-2.8-2.9c-0.7-1.3-1-2.8-1-4.6c0-1.8,0.3-3.3,0.9-4.6c0.6-1.3,1.5-2.3,2.5-3
			C537.3,151.1,538.6,150.8,540.1,150.8z M540,152.8c-1.3,0-2.4,0.4-3.2,1.3c-0.8,0.9-1.3,2.1-1.4,3.7h8.8c0-1-0.2-1.9-0.5-2.6
			s-0.8-1.3-1.4-1.8C541.8,153.1,541,152.8,540,152.8z"/>
	</g>
	<g style="clip-path:url(#SVGID_00000090278613152516897540000010232162008046431897_);">
		<path d="M556.5,165.9c0.4,0,0.8,0,1.3-0.1c0.4-0.1,0.8-0.2,1.1-0.3v2c-0.3,0.1-0.7,0.2-1.2,0.3s-1,0.1-1.5,0.1
			c-0.9,0-1.7-0.2-2.4-0.5s-1.3-0.8-1.7-1.6c-0.4-0.7-0.6-1.8-0.6-3.1v-9.9h-2.4v-1.2l2.4-1l1-3.6h1.5v3.9h4.9v2h-4.9v9.8
			c0,1,0.2,1.8,0.7,2.3C555,165.7,555.7,165.9,556.5,165.9z"/>
	</g>
	<g style="clip-path:url(#SVGID_00000090278613152516897540000010232162008046431897_);">
		<path d="M572.9,163.2c0,1.1-0.3,2-0.8,2.7c-0.5,0.7-1.3,1.3-2.3,1.6c-1,0.4-2.2,0.5-3.5,0.5c-1.2,0-2.2-0.1-3-0.3
			s-1.6-0.4-2.2-0.8v-2.3c0.7,0.3,1.5,0.6,2.4,0.9c0.9,0.3,1.9,0.4,2.9,0.4c1.4,0,2.5-0.2,3.1-0.7c0.6-0.5,1-1.1,1-1.9
			c0-0.5-0.1-0.9-0.4-1.2s-0.7-0.7-1.3-1s-1.4-0.7-2.5-1.1c-1.1-0.4-2-0.8-2.8-1.2s-1.4-0.9-1.8-1.5c-0.4-0.6-0.6-1.3-0.6-2.2
			c0-1.4,0.6-2.5,1.7-3.2c1.1-0.8,2.6-1.1,4.5-1.1c1,0,1.9,0.1,2.8,0.3c0.9,0.2,1.7,0.5,2.4,0.8l-0.8,2c-0.7-0.3-1.4-0.5-2.2-0.7
			s-1.6-0.3-2.4-0.3c-1.2,0-2.1,0.2-2.7,0.6c-0.6,0.4-0.9,0.9-0.9,1.6c0,0.5,0.1,0.9,0.4,1.3c0.3,0.3,0.8,0.6,1.4,0.9
			c0.6,0.3,1.5,0.6,2.5,1c1,0.4,1.9,0.8,2.7,1.2c0.8,0.4,1.3,0.9,1.8,1.5S572.9,162.2,572.9,163.2z"/>
	</g>
	<g style="clip-path:url(#SVGID_00000090278613152516897540000010232162008046431897_);">
		<path d="M591.4,145.5c1.8,0,3.3,0.2,4.5,0.7c1.2,0.5,2.1,1.1,2.7,2.1c0.6,0.9,0.9,2.1,0.9,3.5c0,1.2-0.2,2.2-0.6,2.9
			c-0.4,0.8-1,1.4-1.7,1.9c-0.7,0.5-1.4,0.9-2.2,1.1l6.1,10h-3l-5.4-9.2H588v9.2h-2.6v-22.2H591.4z M591.3,147.8H588v8.5h3.5
			c1.8,0,3.1-0.4,4-1.1c0.9-0.7,1.3-1.8,1.3-3.3c0-1.5-0.5-2.6-1.4-3.2C594.5,148.1,593.1,147.8,591.3,147.8z"/>
	</g>
	<g style="clip-path:url(#SVGID_00000090278613152516897540000010232162008046431897_);">
		<path d="M610.6,150.8c1.4,0,2.6,0.3,3.6,0.9c1,0.6,1.8,1.5,2.3,2.6c0.5,1.1,0.8,2.4,0.8,3.9v1.6h-11.5c0,2,0.5,3.4,1.5,4.5
			c0.9,1,2.3,1.5,4,1.5c1.1,0,2-0.1,2.8-0.3c0.8-0.2,1.6-0.5,2.5-0.8v2.2c-0.8,0.4-1.7,0.6-2.5,0.8c-0.8,0.2-1.8,0.3-2.9,0.3
			c-1.6,0-3-0.3-4.2-1c-1.2-0.7-2.1-1.6-2.8-2.9c-0.7-1.3-1-2.8-1-4.6c0-1.8,0.3-3.3,0.9-4.6c0.6-1.3,1.5-2.3,2.5-3
			C607.8,151.1,609.1,150.8,610.6,150.8z M610.6,152.8c-1.3,0-2.4,0.4-3.2,1.3c-0.8,0.9-1.3,2.1-1.4,3.7h8.8c0-1-0.2-1.9-0.5-2.6
			s-0.8-1.3-1.4-1.8C612.3,153.1,611.5,152.8,610.6,152.8z"/>
	</g>
	<g style="clip-path:url(#SVGID_00000090278613152516897540000010232162008046431897_);">
		<path d="M624.2,167.7h-2.5v-23.6h2.5V167.7z"/>
	</g>
	<g style="clip-path:url(#SVGID_00000090278613152516897540000010232162008046431897_);">
		<path d="M630.8,144.9c0.4,0,0.8,0.1,1.1,0.4c0.3,0.3,0.4,0.7,0.4,1.3c0,0.6-0.1,1-0.4,1.2c-0.3,0.3-0.7,0.4-1.1,0.4
			c-0.4,0-0.8-0.1-1.1-0.4c-0.3-0.3-0.4-0.7-0.4-1.2c0-0.6,0.1-1,0.4-1.3S630.3,144.9,630.8,144.9z M632,151.1v16.6h-2.5v-16.6H632z
			"/>
	</g>
	<g style="clip-path:url(#SVGID_00000090278613152516897540000010232162008046431897_);">
		<path d="M643.5,150.8c2,0,3.5,0.4,4.4,1.3c1,0.9,1.4,2.3,1.4,4.3v11.3h-1.8l-0.5-2.5h-0.1c-0.5,0.6-1,1.1-1.5,1.5
			c-0.5,0.4-1.1,0.7-1.8,0.9s-1.5,0.3-2.4,0.3c-1,0-1.9-0.2-2.7-0.5s-1.4-0.9-1.8-1.6c-0.5-0.7-0.7-1.6-0.7-2.7c0-1.7,0.7-2.9,2-3.8
			c1.3-0.9,3.3-1.4,6-1.5l2.9-0.1v-1c0-1.4-0.3-2.4-0.9-3s-1.5-0.9-2.6-0.9c-0.9,0-1.7,0.1-2.5,0.4c-0.8,0.3-1.5,0.6-2.2,0.9
			l-0.8-1.9c0.7-0.4,1.6-0.7,2.6-1C641.4,150.9,642.5,150.8,643.5,150.8z M646.9,159.5l-2.5,0.1c-2.1,0.1-3.5,0.4-4.4,1
			s-1.3,1.4-1.3,2.5c0,1,0.3,1.7,0.9,2.1s1.3,0.7,2.3,0.7c1.5,0,2.7-0.4,3.6-1.2c0.9-0.8,1.4-2,1.4-3.7V159.5z"/>
	</g>
	<g style="clip-path:url(#SVGID_00000090278613152516897540000010232162008046431897_);">
		<path d="M657.1,144.1v5.9c0,0.7,0,1.3-0.1,2c0,0.6-0.1,1.1-0.1,1.5h0.1c0.5-0.7,1.1-1.4,2-1.9c0.9-0.5,2-0.8,3.3-0.8
			c2.1,0,3.7,0.7,5,2.2s1.9,3.6,1.9,6.4c0,1.9-0.3,3.4-0.8,4.7c-0.6,1.3-1.4,2.3-2.4,2.9c-1,0.7-2.2,1-3.7,1c-1.3,0-2.4-0.2-3.2-0.7
			c-0.8-0.5-1.5-1.1-1.9-1.8h-0.2l-0.5,2.2h-1.8v-23.6H657.1z M661.9,152.9c-1.2,0-2.2,0.2-2.9,0.7c-0.7,0.5-1.2,1.2-1.5,2.1
			c-0.3,0.9-0.5,2.1-0.5,3.6v0.1c0,2.1,0.3,3.7,1,4.8c0.7,1.1,2,1.7,3.8,1.7c1.5,0,2.7-0.6,3.5-1.7c0.8-1.1,1.2-2.7,1.2-4.9
			c0-2.1-0.4-3.8-1.1-4.8C664.7,153.4,663.5,152.9,661.9,152.9z"/>
	</g>
	<g style="clip-path:url(#SVGID_00000090278613152516897540000010232162008046431897_);">
		<path d="M674.8,144.9c0.4,0,0.8,0.1,1.1,0.4c0.3,0.3,0.4,0.7,0.4,1.3c0,0.6-0.1,1-0.4,1.2c-0.3,0.3-0.7,0.4-1.1,0.4
			c-0.4,0-0.8-0.1-1.1-0.4c-0.3-0.3-0.4-0.7-0.4-1.2c0-0.6,0.1-1,0.4-1.3S674.4,144.9,674.8,144.9z M676.1,151.1v16.6h-2.5v-16.6
			H676.1z"/>
	</g>
	<g style="clip-path:url(#SVGID_00000090278613152516897540000010232162008046431897_);">
		<path d="M683.9,167.7h-2.5v-23.6h2.5V167.7z"/>
	</g>
	<g style="clip-path:url(#SVGID_00000090278613152516897540000010232162008046431897_);">
		<path d="M690.5,144.9c0.4,0,0.8,0.1,1.1,0.4c0.3,0.3,0.4,0.7,0.4,1.3c0,0.6-0.1,1-0.4,1.2c-0.3,0.3-0.7,0.4-1.1,0.4
			c-0.4,0-0.8-0.1-1.1-0.4c-0.3-0.3-0.4-0.7-0.4-1.2c0-0.6,0.1-1,0.4-1.3S690.1,144.9,690.5,144.9z M691.7,151.1v16.6h-2.5v-16.6
			H691.7z"/>
	</g>
	<g style="clip-path:url(#SVGID_00000090278613152516897540000010232162008046431897_);">
		<path d="M702.4,165.9c0.4,0,0.8,0,1.3-0.1c0.4-0.1,0.8-0.2,1.1-0.3v2c-0.3,0.1-0.7,0.2-1.2,0.3s-1,0.1-1.5,0.1
			c-0.9,0-1.7-0.2-2.4-0.5s-1.3-0.8-1.7-1.6c-0.4-0.7-0.6-1.8-0.6-3.1v-9.9h-2.4v-1.2l2.4-1l1-3.6h1.5v3.9h4.9v2h-4.9v9.8
			c0,1,0.2,1.8,0.7,2.3C701,165.7,701.6,165.9,702.4,165.9z"/>
	</g>
	<g style="clip-path:url(#SVGID_00000090278613152516897540000010232162008046431897_);">
		<path d="M705.5,151.1h2.7l3.7,9.6c0.2,0.6,0.4,1.1,0.6,1.6c0.2,0.5,0.3,1,0.5,1.5s0.3,0.9,0.3,1.4h0.1c0.1-0.5,0.3-1.2,0.6-2
			c0.3-0.8,0.5-1.7,0.8-2.5l3.5-9.6h2.7l-7.2,19.1c-0.4,1-0.8,1.9-1.3,2.7c-0.5,0.8-1.1,1.3-1.9,1.8s-1.6,0.6-2.6,0.6
			c-0.5,0-0.9,0-1.3-0.1c-0.4-0.1-0.7-0.1-0.9-0.2v-2c0.2,0.1,0.5,0.1,0.8,0.1c0.3,0,0.6,0.1,1,0.1c0.6,0,1.2-0.1,1.6-0.4
			s0.9-0.6,1.2-1c0.3-0.5,0.6-1,0.9-1.6l0.9-2.3L705.5,151.1z"/>
	</g>
	<g style="clip-path:url(#SVGID_00000090278613152516897540000010232162008046431897_);">
		<path d="M723.3,166.1c0-0.7,0.2-1.2,0.5-1.5s0.8-0.4,1.3-0.4c0.5,0,1,0.1,1.3,0.4s0.5,0.8,0.5,1.5c0,0.7-0.2,1.2-0.5,1.5
			s-0.8,0.5-1.3,0.5c-0.5,0-0.9-0.2-1.3-0.5S723.3,166.8,723.3,166.1z"/>
	</g>
</g>
<rect x="232.7" y="17.1" class="st3" width="253.1" height="101.7"/>
<rect x="485.8" y="24.8" class="st3" width="253.1" height="101.7"/>
<g>
	<defs>
		<circle id="SVGID_00000062180157254287403280000009258491181190498185_" cx="117.6" cy="99.2" r="93.5"/>
	</defs>
	<use xlink:href="#SVGID_00000062180157254287403280000009258491181190498185_"  style="overflow:visible;"/>
	<clipPath id="SVGID_00000085930966062453619870000014291188424734576018_">
		<use xlink:href="#SVGID_00000062180157254287403280000009258491181190498185_"  style="overflow:visible;"/>
	</clipPath>
	
		<rect x="117.6" y="-32.3" style="clip-path:url(#SVGID_00000085930966062453619870000014291188424734576018_);fill:#FFFFFF;stroke:#000000;stroke-miterlimit:10;" width="93.5" height="263"/>
	
		<use xlink:href="#SVGID_00000062180157254287403280000009258491181190498185_"  style="overflow:visible;fill:none;stroke:#000000;stroke-miterlimit:10;"/>
</g>
</svg>
